<svg xmlns="http://www.w3.org/2000/svg" xml:space="preserve" style="fill-rule:evenodd;clip-rule:evenodd;stroke-linejoin:round;stroke-miterlimit:2" viewBox="0 0 709 342"><path d="M438.225 295.25c-41.067 30.304-100.596 46.417-151.858 46.417-71.846 0-136.542-26.555-185.5-70.763-3.846-3.471-.417-8.208 4.208-5.521 52.817 30.734 118.142 49.246 185.604 49.246 45.513 0 95.538-9.446 141.575-28.971 6.938-2.946 12.759 4.575 5.971 9.592Zm17.083-19.508c-5.254-6.721-34.712-3.188-47.954-1.6-4.008.483-4.633-3.021-1.021-5.559 23.513-16.508 62.025-11.745 66.5-6.216 4.509 5.575-1.183 44.191-23.212 62.616-3.388 2.834-6.609 1.321-5.109-2.421 4.959-12.379 16.055-40.091 10.796-46.82Z" style="fill:#f8991c"/><path d="M550.517 129.779c32.462 0 50.02 27.879 50.02 63.313 0 34.25-19.395 61.425-50.02 61.425-31.855 0-49.213-27.884-49.213-62.605 0-34.966 17.559-62.133 49.213-62.133ZM373.242 251.871c-1.446 1.3-3.534 1.383-5.167.508-7.262-6.037-8.563-8.825-12.537-14.575-12.005 12.229-20.509 15.9-36.063 15.9-18.413 0-32.737-11.367-32.737-34.096 0-17.754 9.616-29.829 23.325-35.746 11.866-5.212 28.441-6.158 41.133-7.583v-2.837c0-5.213.408-11.359-2.663-15.863-2.662-4.025-7.775-5.683-12.279-5.683-8.342 0-15.758 4.275-17.579 13.133-.383 1.971-1.821 3.925-3.8 4.025l-21.2-2.296c-1.792-.404-3.779-1.841-3.267-4.575 4.875-25.721 28.105-33.487 48.913-33.487 10.646 0 24.554 2.837 32.946 10.891 10.646 9.942 9.616 23.205 9.616 37.646v34.071c0 10.258 4.263 14.75 8.259 20.271 1.396 1.996 1.708 4.358-.075 5.817-4.463 3.745-12.405 10.637-16.771 14.525l-.054-.046Zm-286.738 0c-1.446 1.3-3.537 1.383-5.167.508-7.27-6.037-8.57-8.825-12.537-14.575-12.008 12.229-20.513 15.9-36.063 15.9C14.321 253.704 0 242.337 0 219.608c0-17.754 9.612-29.829 23.325-35.746 11.867-5.212 28.442-6.158 41.125-7.583v-2.837c0-5.213.413-11.359-2.658-15.863-2.663-4.025-7.775-5.683-12.275-5.683-8.342 0-15.767 4.275-17.584 13.133-.379 1.971-1.816 3.925-3.8 4.025l-21.2-2.296c-1.791-.404-3.779-1.841-3.262-4.575 4.871-25.721 28.092-33.487 48.912-33.487 10.642 0 24.555 2.837 32.946 10.891 10.638 9.942 9.617 23.205 9.617 37.646v34.071c0 10.258 4.258 14.75 8.254 20.271 1.392 1.996 1.712 4.358-.071 5.817-4.467 3.745-12.408 10.637-16.775 14.525l-.05-.046Zm59.738.279h-21.871c-2.083-.138-3.746-1.7-3.917-3.7l.021-112.262c0-2.246 1.883-4.038 4.221-4.038l20.371-.008c2.129.112 3.841 1.72 3.971 3.775v14.654h.412c5.308-14.175 15.317-20.792 28.788-20.792 13.679 0 22.254 6.617 28.383 20.792 5.308-14.175 17.354-20.792 30.216-20.792 9.192 0 19.196 3.784 25.321 12.288 6.938 9.45 5.513 23.146 5.513 35.195l-.017 70.846c0 2.242-1.887 4.042-4.225 4.042h-21.842c-2.2-.142-3.924-1.879-3.924-4.029l-.009-59.517c0-4.721.413-16.537-.612-21.021-1.634-7.562-6.534-9.695-12.859-9.695-5.312 0-10.825 3.545-13.075 9.216-2.241 5.675-2.037 15.117-2.037 21.5v59.504c0 2.242-1.888 4.042-4.221 4.042h-21.846c-2.2-.142-3.929-1.879-3.929-4.029l-.021-59.517c0-12.521 2.042-30.946-13.471-30.946-15.725 0-15.112 17.95-15.112 30.946l-.008 59.504c0 2.242-1.888 4.042-4.221 4.042Zm496.396 0h-21.792c-2.192-.142-3.925-1.879-3.925-4.029l-.038-112.304c.188-2.059 2-3.667 4.205-3.667l20.287-.008c1.908.104 3.487 1.404 3.888 3.146v17.17h.412c6.125-15.358 14.7-22.679 29.804-22.679 9.804 0 19.4 3.542 25.525 13.234 5.721 8.975 5.721 24.091 5.721 34.958v70.646c-.246 1.987-2.033 3.533-4.196 3.533h-21.925c-2.025-.129-3.658-1.621-3.896-3.533v-60.954c0-12.284 1.434-30.242-13.675-30.242-5.312 0-10.212 3.546-12.662 8.975-3.063 6.854-3.475 13.7-3.475 21.267v60.445c-.038 2.242-1.925 4.042-4.258 4.042ZM408.504 151.958v-16.041c.017-2.442 1.854-4.071 4.071-4.063l71.9-.008c2.296 0 4.142 1.675 4.142 4.05v13.754c-.021 2.313-1.963 5.321-5.413 10.1l-37.242 53.175c13.821-.325 28.451 1.75 41.009 8.808 2.833 1.592 3.592 3.946 3.817 6.263v17.116c0 2.355-2.584 5.088-5.301 3.663-22.124-11.592-51.491-12.858-75.966.146-2.5 1.329-5.117-1.363-5.117-3.721v-16.271c0-2.604.054-7.058 2.679-11.025L450.233 156l-37.57-.004c-2.301 0-4.142-1.633-4.159-4.038Zm-57.308 46.579c0 8.53.2 15.626-4.096 23.205-3.479 6.154-9.008 9.941-15.142 9.941-8.387 0-13.3-6.391-13.3-15.862 0-18.629 16.713-22.017 32.538-22.017v4.733Zm-286.746 0c0 8.53.204 15.626-4.092 23.205-3.475 6.154-9.004 9.941-15.141 9.941-8.388 0-13.3-6.391-13.3-15.862 0-18.629 16.716-22.017 32.533-22.017v4.733ZM550.713 152.7c-16.13 0-17.146 21.962-17.146 35.667 0 13.7-.204 42.991 16.95 42.991 16.95 0 17.758-23.621 17.758-38.025 0-9.45-.408-20.791-3.267-29.77-2.45-7.796-7.354-10.863-14.295-10.863Zm-89.496-82.512c-7.517 0-13.2-2.08-17.05-6.238-3.85-4.154-5.775-10.296-5.775-18.421 0-7.762 1.925-13.796 5.775-18.108 3.85-4.304 9.225-6.459 16.133-6.459 5.804 0 10.267 1.634 13.383 4.901 3.117 3.27 4.675 7.899 4.675 13.887a39.98 39.98 0 0 1-.458 5.963c-.125.729-.321 1.22-.596 1.466-.275.242-.717.367-1.329.367h-28.783c.121 5.254 1.42 9.133 3.896 11.637 2.475 2.509 6.308 3.759 11.504 3.759 1.833 0 3.591-.117 5.271-.367 1.679-.242 3.804-.763 6.37-1.558.425-.121.796-.225 1.1-.317.304-.096.58-.137.825-.137.796 0 1.192.545 1.192 1.649v2.567c0 .792-.125 1.359-.367 1.692-.246.342-.766.692-1.558 1.054-1.833.796-4.021 1.438-6.554 1.925a40.118 40.118 0 0 1-7.654.738Zm63.429-.184c-4.338 0-7.804-1.242-10.404-3.712-2.596-2.479-3.896-5.792-3.896-9.95 0-4.459 1.591-8.017 4.766-10.68 3.18-2.654 7.459-3.987 12.834-3.987 3.425 0 7.267.521 11.55 1.558v-6.045c0-3.3-.746-5.626-2.246-6.971-1.5-1.342-4.046-2.017-7.654-2.017-4.213 0-8.342.613-12.371 1.833-1.408.429-2.296.646-2.662.646-.734 0-1.1-.554-1.1-1.65V26.55c0-.792.12-1.375.366-1.742.246-.362.734-.7 1.467-1.004 1.896-.858 4.291-1.546 7.196-2.062a48.962 48.962 0 0 1 8.662-.78c5.8 0 10.084 1.205 12.834 3.617 2.754 2.417 4.124 6.1 4.124 11.05v31.35c0 1.221-.608 1.833-1.833 1.833h-3.946c-1.158 0-1.833-.583-2.012-1.741l-.458-3.029a25.23 25.23 0 0 1-7.288 4.404c-2.658 1.037-5.3 1.558-7.929 1.558Zm-295.188 0c-4.337 0-7.804-1.242-10.404-3.712-2.596-2.479-3.896-5.792-3.896-9.95 0-4.459 1.588-8.017 4.767-10.68 3.179-2.654 7.458-3.987 12.833-3.987 3.421 0 7.271.521 11.55 1.558v-6.045c0-3.3-.75-5.626-2.245-6.971-1.496-1.342-4.05-2.017-7.655-2.017-4.216 0-8.341.613-12.375 1.833-1.408.429-2.291.646-2.658.646-.733 0-1.1-.554-1.1-1.65V26.55c0-.792.121-1.375.367-1.742.246-.362.733-.7 1.466-1.004 1.896-.858 4.292-1.546 7.196-2.062a48.973 48.973 0 0 1 8.663-.78c5.804 0 10.083 1.205 12.833 3.617 2.75 2.417 4.125 6.1 4.125 11.05v31.35c0 1.221-.612 1.833-1.833 1.833h-3.942c-1.163 0-1.833-.583-2.017-1.741l-.458-3.029a25.164 25.164 0 0 1-7.288 4.404c-2.658 1.037-5.304 1.558-7.929 1.558Zm-94.229 0c-4.341 0-7.808-1.242-10.404-3.712-2.6-2.479-3.896-5.792-3.896-9.95 0-4.459 1.588-8.017 4.767-10.68 3.175-2.654 7.454-3.987 12.833-3.987 3.421 0 7.271.521 11.55 1.558v-6.045c0-3.3-.75-5.626-2.246-6.971-1.5-1.342-4.05-2.017-7.654-2.017-4.216 0-8.341.613-12.375 1.833-1.408.429-2.292.646-2.658.646-.734 0-1.1-.554-1.1-1.65V26.55c0-.792.121-1.375.366-1.742.242-.362.734-.7 1.467-1.004 1.892-.858 4.292-1.546 7.196-2.062 2.9-.521 5.787-.78 8.662-.78 5.805 0 10.084 1.205 12.834 3.617 2.75 2.417 4.125 6.1 4.125 11.05v31.35c0 1.221-.613 1.833-1.834 1.833h-3.941c-1.163 0-1.833-.583-2.017-1.741l-.458-3.029a25.164 25.164 0 0 1-7.288 4.404c-2.658 1.037-5.304 1.558-7.929 1.558Zm190.613 0c-4.338 0-7.804-1.242-10.404-3.712-2.596-2.479-3.896-5.792-3.896-9.95 0-4.459 1.591-8.017 4.766-10.68 3.18-2.654 7.459-3.987 12.834-3.987 3.425 0 7.275.521 11.55 1.558v-6.045c0-3.3-.746-5.626-2.246-6.971-1.496-1.342-4.046-2.017-7.654-2.017-4.213 0-8.342.613-12.371 1.833-1.408.429-2.296.646-2.659.646-.737 0-1.104-.554-1.104-1.65V26.55c0-.792.125-1.375.367-1.742.246-.362.737-.7 1.467-1.004 1.896-.858 4.295-1.546 7.195-2.062a48.982 48.982 0 0 1 8.663-.78c5.808 0 10.083 1.205 12.838 3.617 2.749 2.417 4.12 6.1 4.12 11.05v31.35c0 1.221-.608 1.833-1.833 1.833h-3.938c-1.162 0-1.833-.583-2.016-1.741l-.463-3.029a25.173 25.173 0 0 1-7.287 4.404c-2.654 1.037-5.3 1.558-7.929 1.558Zm59.591-.183c-5.621 0-10.541-1.958-14.758-5.871l-.642 3.029c-.183 1.221-.887 1.833-2.104 1.833h-3.946c-1.22 0-1.833-.612-1.833-1.833V2.813c0-1.226.613-1.834 1.833-1.834h5.413c1.221 0 1.833.608 1.833 1.834v23.92c4.579-3.846 9.534-5.771 14.846-5.771 5.929 0 10.604 2.138 14.025 6.417 3.421 4.279 5.133 10.142 5.133 17.596 0 7.517-1.8 13.537-5.408 18.058-3.604 4.525-8.4 6.788-14.392 6.788Zm191.829-.371c-8.679 0-13.016-4.338-13.016-13.017V29.488h-6.6c-1.225 0-1.833-.613-1.833-1.834v-2.296c0-.608.133-1.066.412-1.37.275-.305.808-.521 1.604-.646l6.692-.821 1.191-11.367c.121-1.225.763-1.833 1.926-1.833h3.845c1.225 0 1.834.608 1.834 1.833v11.184h11.921c1.22 0 1.833.608 1.833 1.833v3.483c0 1.221-.613 1.834-1.833 1.834h-11.921v26.487c0 2.262.508 3.854 1.516 4.767 1.009.921 2.734 1.379 5.18 1.379 1.158 0 2.595-.154 4.308-.458.917-.184 1.525-.28 1.833-.28.488 0 .825.138 1.009.413.183.275.275.721.275 1.333V65.6c0 .796-.125 1.392-.367 1.792-.246.395-.738.716-1.467.962-2.383.729-5.167 1.096-8.342 1.096Zm-151.375-.183c-3.237 0-5.712-.929-7.425-2.796-1.712-1.863-2.566-4.534-2.566-8.017V2.813c0-1.226.608-1.834 1.833-1.834h5.409c1.22 0 1.833.608 1.833 1.834V57.9c0 1.408.292 2.429.871 3.075.583.638 1.545.962 2.887.962.367 0 .746-.033 1.146-.091.396-.063.75-.092 1.054-.092.613 0 1.025.15 1.238.458.212.305.32.763.32 1.376v2.933c0 .608-.137 1.083-.412 1.421-.275.333-.75.595-1.421.779a20.612 20.612 0 0 1-4.767.546Zm-128.016 0c-3.242 0-5.717-.929-7.425-2.796-1.713-1.863-2.567-4.534-2.567-8.017V2.813c0-1.226.608-1.834 1.833-1.834h5.409c1.221 0 1.833.608 1.833 1.834V57.9c0 1.408.288 2.429.871 3.075.579.638 1.542.962 2.887.962.367 0 .746-.033 1.146-.091a6.752 6.752 0 0 1 1.054-.092c.609 0 1.021.15 1.238.458.212.305.321.763.321 1.376v2.933c0 .608-.138 1.083-.413 1.421-.275.333-.75.595-1.42.779-1.53.362-3.117.546-4.767.546Zm-112.317-.455c-.858 0-1.483-.124-1.883-.366-.396-.246-.808-.95-1.238-2.113l-16.225-40.696c-.12-.37-.258-.737-.412-1.1-.15-.366-.225-.704-.225-1.012 0-.792.454-1.187 1.375-1.187h5.408c.913 0 1.558.12 1.921.366.367.242.767.946 1.196 2.104l12.554 35.755 12.558-35.755c.43-1.158.83-1.862 1.196-2.104.363-.246 1.004-.366 1.921-.366h5.042c.921 0 1.379.395 1.379 1.187 0 .308-.079.646-.233 1.012-.15.363-.288.73-.409 1.1l-16.133 40.696c-.429 1.163-.846 1.867-1.242 2.113-.396.242-1.021.366-1.875.366h-4.675Zm82.154 0c-1.22 0-1.833-.612-1.833-1.833V24.171c0-1.225.613-1.833 1.833-1.833h5.413c1.221 0 1.833.608 1.833 1.833v42.808c0 1.221-.612 1.833-1.833 1.833h-5.413Zm60.334-5.683c2.02 0 4.125-.396 6.325-1.192 2.204-.795 4.312-1.958 6.325-3.483v-9.35c-3.3-.796-6.538-1.196-9.717-1.196-6.904 0-10.354 2.663-10.354 7.975 0 2.325.637 4.113 1.921 5.367 1.287 1.25 3.116 1.879 5.5 1.879Zm-190.613 0c2.017 0 4.125-.396 6.325-1.192 2.2-.795 4.308-1.958 6.325-3.483v-9.35c-3.3-.796-6.537-1.196-9.716-1.196-6.909 0-10.359 2.663-10.359 7.975 0 2.325.642 4.113 1.925 5.367 1.284 1.25 3.117 1.879 5.5 1.879Zm94.229 0c2.017 0 4.125-.396 6.325-1.192 2.2-.795 4.309-1.958 6.325-3.483v-9.35c-3.3-.796-6.537-1.196-9.716-1.196-6.904 0-10.359 2.663-10.359 7.975 0 2.325.642 4.113 1.925 5.367 1.284 1.25 3.117 1.879 5.5 1.879Zm295.188 0c2.017 0 4.125-.396 6.325-1.192 2.204-.795 4.304-1.958 6.325-3.483v-9.35c-3.3-.796-6.538-1.196-9.717-1.196-6.904 0-10.358 2.663-10.358 7.975 0 2.325.642 4.113 1.925 5.367 1.283 1.25 3.117 1.879 5.5 1.879Zm-143.521-.646c8.433 0 12.65-5.679 12.65-17.046 0-5.808-1.025-10.116-3.071-12.924-2.046-2.813-5.179-4.221-9.396-4.221-4.337 0-8.433 1.408-12.279 4.221v25.57c3.846 2.934 7.883 4.4 12.096 4.4Zm86.692-20.991c.062-.488.091-1.279.091-2.379 0-3.73-.871-6.542-2.612-8.434-1.742-1.896-4.296-2.842-7.654-2.842-3.85 0-6.846 1.142-8.984 3.438-2.137 2.292-3.362 5.696-3.666 10.217h22.825ZM270.458 14.087c-1.77 0-3.158-.504-4.17-1.516-1.005-1.004-1.509-2.338-1.509-3.988s.504-2.975 1.509-3.987c1.012-1.004 2.4-1.509 4.17-1.509 1.775 0 3.167.505 4.171 1.509 1.013 1.012 1.517 2.337 1.517 3.987s-.504 2.984-1.517 3.988c-1.004 1.012-2.396 1.516-4.171 1.516Z" style="fill:#fff"/></svg>