<svg xmlns="http://www.w3.org/2000/svg" xml:space="preserve" style="fill-rule:evenodd;clip-rule:evenodd;stroke-linejoin:round;stroke-miterlimit:2" viewBox="0 0 32 32"><path d="M.761.971a.984.984 0 1 1 .043 1.14l.005-.003.009-.003c.003 0 .01-.003.015-.007a.33.33 0 0 0 .066-.035.088.088 0 0 1 .029-.014.46.46 0 0 0 .115-.065.173.173 0 0 0 .028-.019.148.148 0 0 1 .045-.02.524.524 0 0 0 .089-.037.49.49 0 0 1 .167-.063c.07-.022.081-.002.049.087l-.019.052a.196.196 0 0 0 .018.156c.03.042.088.038.103-.007.007-.02.012-.024.022-.016.041.037.069.024.08-.036a.538.538 0 0 1 .023-.1.505.505 0 0 0-.003-.169c-.005-.013.002-.023.021-.029.004-.001.008-.004.008-.005a.382.382 0 0 0 .101-.094c.009-.016.02-.012.126.047l.125.072c.085.047.156.102.156.121 0 .014.009.016.042.012a.232.232 0 0 1 .147.029c.045.025.063.017.024-.01a.312.312 0 0 1-.072-.068l-.035-.039.019-.018c.029-.027.024-.053-.012-.072a.457.457 0 0 1-.065-.049.237.237 0 0 0-.047-.032.11.11 0 0 0-.023-.013c-.009-.003-.013-.008-.018-.022a.204.204 0 0 0-.069-.072l-.305-.244a1.01 1.01 0 0 0-.12-.09.26.26 0 0 1-.021-.009l-.042-.011a.714.714 0 0 1-.088-.024.273.273 0 0 0-.067-.017.852.852 0 0 0-.064-.021.718.718 0 0 1-.139-.053.846.846 0 0 1-.054-.025.21.21 0 0 0-.032-.014.296.296 0 0 1-.038-.014.204.204 0 0 0-.145-.007c-.033.014-.06.016-.074.007L.761.971Zm.711 1.176c.004-.006-.013-.044-.019-.044-.009 0-.017.016-.016.028.002.013.029.026.035.016Zm.036-.019a.559.559 0 0 0 .022-.051l.01-.017c.016-.025.006-.045-.023-.045-.036 0-.058.086-.03.114.008.007.017.007.021-.001Zm.093-.011c.022-.022.014-.11-.011-.11-.01 0-.012.009-.005.02.007.011.003.016-.009.012-.022-.007-.038.062-.016.07a.163.163 0 0 1 .019.009c.012.007.014.007.022-.001Zm-.156-.027c.01-.006.014-.013.024-.04.018-.049.038-.062.069-.047.024.012.032.009.031-.012-.001-.008.001-.011.008-.012.018-.005.046-.086.048-.138.001-.036.001-.036-.024-.029a.612.612 0 0 1-.083.018c-.025.004-.046.017-.054.032-.009.018-.004.022.014.011.008-.006.016-.009.017-.008.005.005-.002.014-.017.023-.012.008-.03.03-.03.038 0 .005.01.002.017-.006.006-.006.02-.01.02-.005a.18.18 0 0 1-.02.022c-.024.022-.026.028-.009.029l.012.002-.02.015c-.027.02-.05.062-.024.044.023-.017.037-.015.018.002-.024.02-.035.05-.014.035.021-.015.027-.006.008.012-.019.019-.014.027.009.014Zm-.687-.044c.018.013.04.026.055.031.005.001.006.003.002.006-.003.004-.017.003-.034-.002a.422.422 0 0 1-.023-.035Zm-.126-.787.002-.002c0-.01.025.001.058.024.008.006.018.01.021.01a.55.55 0 0 1 .097.082.612.612 0 0 0 .041.036c.004.002.017.014.03.026.023.022.031.026.088.049.049.02.042.035-.028.058-.037.012-.043.012-.06-.002-.016-.012-.019-.013-.023-.007-.002.003.003.009.011.016.036.029.031.067-.008.063-.002 0-.006-.006-.008-.013-.012-.036-.063-.055-.065-.024 0 .005-.002.001-.003-.009-.003-.02-.013-.024-.014-.005l-.003.018c-.002.005-.001.007.005.009.005.001.008.005.008.011 0 .015.017.008.024-.011.004-.012.01-.007.01.008a.04.04 0 0 1-.01.027c-.005.006-.009.013-.007.014.004.005.049.004.056-.001.026-.016.082-.02.142-.011l.19.012.068-.022a.567.567 0 0 1 .095-.026c.029-.012.225.003.221.017-.018.052.009.126.046.126.016.001.047.012.049.018.002.007-.044.006-.066-.001-.029-.01-.031.002-.003.016.006.003.009.007.007.009-.004.004-.034-.003-.053-.014-.014-.007-.033-.008-.023 0l.017.012c.008.007.02.013.027.015.007.001.013.004.014.006.009.014-.046.003-.076-.015-.04-.026-.05-.018-.011.009.03.02.032.026.006.022a.164.164 0 0 1-.073-.031c-.007-.008-.021-.011-.021-.005 0 .004.023.025.033.031.007.003.008.005.005.008-.004.004-.014.003-.061-.009a.078.078 0 0 1-.033-.022c-.021-.02-.029-.019-.018.003.016.033.009.042-.022.026-.028-.015-.037-.007-.011.01.018.011.017.018-.004.018-.03 0-.059-.019-.067-.044-.006-.015-.015-.02-.017-.008-.002.011.023.045.039.054.017.009.016.015-.002.013-.02-.001-.053-.025-.062-.045-.009-.017-.017-.021-.017-.007 0 .014.018.038.038.051.022.015.023.02.005.02a.068.068 0 0 1-.058-.044c-.004-.017-.014-.014-.013.003.001.017.023.046.038.05.014.003.01.009-.007.009-.022 0-.045-.017-.057-.041-.009-.02-.016-.024-.02-.011-.003.011.015.039.036.054.024.017.024.023.001.019a.097.097 0 0 1-.069-.05c-.005-.01-.015-.011-.015-.001 0 .007.032.049.041.055.007.004.005.009-.004.009-.015 0-.047-.021-.058-.038-.008-.012-.01-.014-.015-.011-.006.006.005.03.018.039.009.007.007.018-.004.018a.17.17 0 0 1-.06-.028c-.007-.007-.02-.006-.02.001 0 .005.039.033.05.036.006.001.011.004.011.006 0 .006-.02.004-.047-.006a.087.087 0 0 0-.03-.006c-.007.007.001.015.021.021l.025.008c.004.001.004.003.002.006-.005.005-.057-.006-.068-.014-.009-.007-.016-.007-.016 0s.014.015.04.024c.03.01.031.017.003.015a.172.172 0 0 1-.05-.014c-.029-.012-.038-.014-.038-.008s.066.038.078.038c.012 0 .022.005.016.009-.011.007-.081-.011-.107-.028-.018-.011-.029-.014-.029-.008 0 .008.005.016.009.016.003 0 .015.004.027.01a.224.224 0 0 0 .038.016c.033.011.026.019-.015.015a.126.126 0 0 1-.059-.02C.781 2.003.773 2 .773 2.007c0 .007.066.045.079.045.014 0 .022.011.011.014a.147.147 0 0 1-.072-.014.195.195 0 0 0-.023-.014.07.07 0 0 1-.022-.015L.74 2.017a.976.976 0 0 1-.108-.758Zm.995.743c.003-.008-.011-.031-.018-.031-.008 0-.008.015-.001.026s.016.013.019.005Zm.01-.048c-.001-.012-.007-.019-.014-.017-.007.002-.007.013 0 .023.008.013.015.01.014-.006Zm.635-.043c.005-.005-.001-.012-.019-.026-.024-.017-.012-.028.013-.011.019.012.022.009.008-.009-.011-.013-.015-.015-.038-.018-.035-.006-.047-.012-.099-.049a.475.475 0 0 0-.071-.046.223.223 0 0 0-.073-.039.447.447 0 0 1-.188-.091c-.021-.017-.031-.017-.026 0a.194.194 0 0 1 .005.02c.002.008.008.013.031.024l.161.093c.001 0 .01.004.018.01a.757.757 0 0 1 .194.131l.014.018.033-.002a.127.127 0 0 0 .037-.005Zm-.63-.005c0-.012-.008-.012-.009.001-.001.007 0 .01.004.009.002-.001.005-.005.005-.01Zm.653-.09c.011-.009.01-.018-.001-.015a.05.05 0 0 1-.017.003c-.01 0-.02.01-.017.017.003.008.025.005.035-.005Zm-.047-.006c0-.005-.005-.01-.013-.015-.019-.01-.034-.025-.034-.033 0-.011.011-.009.026.006.021.018.053.025.053.012a.103.103 0 0 0-.027-.027l-.042-.036c-.043-.038-.071-.046-.095-.028a.124.124 0 0 1-.04.019c-.026.007-.027.012-.008.026.016.011.024.012.024.004 0-.009.007-.011.014-.004a.034.034 0 0 0 .017.005c.011-.001.017.005.023.025.002.006.003.006.009 0 .008-.007.019 0 .019.012l.006.017c.006.011.017.015.017.005 0-.011.014-.006.022.008.009.015.029.018.029.004Zm-.951-.1c-.006-.014-.004-.032.004-.032.004 0 .005.004.006.013 0 .007.001.017.003.021.004.013-.007.011-.013-.002Zm.369-.004c.055-.022.074-.062.051-.105a.158.158 0 0 1-.007-.016c-.002-.008-.024-.012-.043-.009a.178.178 0 0 0-.061.019l-.017.015c-.017.015-.012.078.008.1.009.011.035.009.069-.004Zm.075-.01c.021-.01.034-.056.022-.078-.006-.012-.022-.029-.028-.029-.006 0-.007.01-.001.013.002.001.004.007.004.013 0 .006.001.016.003.022.005.011.001.023-.014.047-.012.02-.008.024.014.012Zm.34-.01c.022-.01.024-.018.005-.018-.037 0-.1-.073-.084-.098l.007-.007c.017 0-.015-.038-.071-.084l-.166-.133c-.006-.003-.045-.035-.061-.048a.415.415 0 0 0-.177-.078l-.28-.091-.125-.054a.218.218 0 0 0-.166-.019c-.044.014-.044.014.036.055l.367.212a.254.254 0 0 1 .028.017l.145.084.023-.004c.031-.006.036-.005.036.001 0 .004-.005.007-.011.009-.013.002-.016.005-.011.012.002.004.007.004.029-.001.037-.009.054-.002.021.009-.012.004-.017.012-.01.016a.07.07 0 0 0 .023-.004c.037-.01.044-.007.051.026.003.014.012.017.019.008.005-.006.006-.006.008.005.004.018.011.023.021.014.008-.007.014-.003.015.009 0 .023.017.053.028.048.006-.002.006-.007 0-.021-.003-.006.006-.018.013-.018.006 0 .012.018.013.039.002.02.013.035.021.03.002-.001.004-.008.003-.015-.002-.027.014-.027.017 0 .005.039.018.053.018.019 0-.031.014-.026.018.006.003.035.025.055.027.025.002-.02.013-.025.017-.008.01.043.015.05.015.019 0-.021.009-.021.016-.001.008.025.02.033.025.017.004-.011.011-.009.022.008.006.008.014.016.019.017l.016.003c.015.003.022.002.04-.006Zm.022-.041c.019-.01.005-.032-.044-.066-.029-.021-.053-.005-.034.022.028.04.056.056.078.044Zm-1.031-.03c.001-.004-.018-.033-.023-.033-.007-.001-.005.011.005.025.009.011.016.014.018.008Zm-.235-.007c0-.004-.001-.008-.003-.01-.002-.001-.004 0-.004.002a.037.037 0 0 1-.002.009c-.002.004-.001.006.003.006s.006-.003.006-.007Zm.197.005c.003-.003-.006-.02-.015-.029-.007-.006-.007-.006-.005.008.001.016.013.028.02.021Zm.095-.012a.172.172 0 0 1-.017-.019c-.015-.018-.016-.009-.001.012.009.013.014.017.019.015.006-.002.005-.003-.001-.008ZM.981 1.6c0-.005.002-.011.006-.015a.108.108 0 0 0 .016-.042c0-.016-.017-.006-.021.013a.133.133 0 0 1-.011.03c-.006.015-.005.022.004.022.003 0 .006-.004.006-.008Zm.171-.012a.113.113 0 0 1-.023-.026c-.007-.011-.011-.014-.014-.011-.004.004.014.034.024.037.003.001.009.007.015.012.006.007.009.008.01.005.001-.003-.004-.011-.012-.017Zm-.058.012c0-.006-.019-.03-.023-.03-.006 0-.004.008.006.021.01.013.017.017.017.009Zm-.146-.01c.022-.021.024-.042.003-.034-.008.002-.013.008-.019.022-.012.029-.006.034.016.012Zm.309-.009c-.001-.002-.004-.003-.006-.003a.057.057 0 0 1-.016-.013c-.031-.031-.047-.043-.047-.033a.206.206 0 0 0 .056.05c0 .002.004.003.008.003s.007-.001.005-.004Zm.044-.005c0-.003-.003-.006-.007-.007a.249.249 0 0 1-.036-.031c-.017-.018-.031-.028-.035-.027-.022.004.004.031.061.066.01.006.017.006.017-.001Zm-.095-.001a.114.114 0 0 0-.02-.023c-.028-.027-.036-.022-.01.006.017.017.031.025.03.017Zm-.037 0c-.001-.007-.03-.037-.03-.03 0 .003.005.012.011.019.011.013.019.017.019.011Zm.177-.006c0-.002-.005-.007-.01-.009a.263.263 0 0 1-.039-.031c-.029-.027-.036-.031-.04-.021-.003.007.034.047.042.047.002 0 .01.004.017.01.013.01.03.012.03.004Zm.182.002c.003-.002-.008-.016-.014-.016-.005 0-.022-.013-.053-.042-.027-.025-.037-.03-.042-.022-.003.005.027.034.049.047l.036.023c.018.014.02.014.024.01Zm-.497-.017c.007-.015.008-.039.002-.042-.008-.005-.018.01-.018.024a.228.228 0 0 1-.002.026c-.004.017.009.011.018-.008Zm.454.013c0-.002-.005-.005-.011-.008-.006-.002-.014-.008-.018-.011-.012-.012-.023-.017-.023-.01 0 .005.027.027.041.033.006.002.011 0 .011-.004ZM.754.982l.085.056.061.038a.89.89 0 0 0 .071.038.4.4 0 0 1 .076.043.832.832 0 0 1 .075.052l.013.007c.006.005.014.007.017.006.003-.001.01.002.014.006a.35.35 0 0 0 .056.033.614.614 0 0 1 .114.064c.005 0 .04.018.048.026a.688.688 0 0 0 .067.038l.008.006a.862.862 0 0 0 .085.046 2.658 2.658 0 0 1 .147.092c.011 0 .028.022.021.026a.035.035 0 0 1-.013.003l-.022-.002a.061.061 0 0 1-.024-.008.327.327 0 0 0-.058-.038.488.488 0 0 1-.048-.03.57.57 0 0 0-.055-.033l-.032-.019a.399.399 0 0 0-.036-.021.064.064 0 0 1-.021-.014c-.005-.004-.01-.007-.011-.006-.002.001-.012-.005-.024-.013a.32.32 0 0 0-.036-.022l-.304-.18a2.282 2.282 0 0 1-.134-.088.843.843 0 0 0-.067-.039A1.336 1.336 0 0 1 .744.998l.01-.016Zm.799.575c.001-.002-.003-.006-.008-.009l-.02-.016c-.038-.035-.062-.05-.062-.038 0 .008.052.05.062.05l.012.009c.008.01.016.011.016.004Zm-.132-.004c0-.003-.006-.009-.014-.014a.252.252 0 0 1-.033-.029c-.018-.019-.032-.024-.038-.014-.003.005.02.026.052.048.024.016.033.018.033.009Zm-.077-.026c-.029-.027-.051-.037-.051-.023 0 .012.054.05.074.051.005 0-.002-.008-.023-.028Zm-.278.011c.006-.014.003-.025-.006-.024-.004.001-.007.007-.008.02-.003.026.004.028.014.004Zm.517.009c0-.003-.004-.009-.01-.013a.174.174 0 0 1-.022-.018c-.011-.009-.024-.013-.024-.007 0 .004.023.027.027.027a.04.04 0 0 1 .013.008c.011.008.016.009.016.003Zm-.488-.017c.004-.009.003-.013-.003-.013s-.011.011-.008.016c.004.005.008.004.011-.003Zm.33-.004c-.008-.015-.037-.04-.044-.037-.008.003.025.038.038.041l.009.002-.003-.006Zm-.188-.036.066-.012c.052-.012.076-.014.119-.012.044.001.054-.001.034-.009l-.025-.012c-.035-.015-.084-.012-.157.01a.498.498 0 0 1-.129.017.58.58 0 0 1-.122-.02c-.047-.01-.078-.012-.082-.007-.003.005.01.015.023.018l.015.005c.039.027.156.037.258.022Zm-.025-.043a.325.325 0 0 0 .055-.01.4.4 0 0 1 .1-.017l.037-.002-.024-.014c-.026-.016-.022-.016-.076-.001a.967.967 0 0 1-.242 0c-.069-.009-.163-.005-.177.009-.005.005.019.027.028.024a.188.188 0 0 1 .128-.001.332.332 0 0 0 .171.012Zm.057-.062c.039-.007.047-.011.04-.019a.806.806 0 0 1-.251-.007C1 1.345.845 1.356.842 1.375c-.003.016.016.02.067.012a.665.665 0 0 1 .198.004.5.5 0 0 0 .162-.006Zm-.405-.038a.52.52 0 0 1 .139-.012l.102.01c.069.01.162.009.162-.002s-.024-.016-.059-.015a.21.21 0 0 1-.07-.006.571.571 0 0 0-.216-.008c-.012.003-.044.007-.071.011-.04.005-.049.007-.05.012-.002.008.016.019.027.017l.036-.007Zm.009-.044.081-.01a.506.506 0 0 1 .168.006c.04.008.071.01.075.004.005-.008-.023-.022-.055-.027a.526.526 0 0 1-.053-.009.4.4 0 0 0-.161.004 1.163 1.163 0 0 1-.122.026c-.025.002-.03.004-.026.01.001.003.011.003.027.002l.066-.006ZM.86 1.269l.07-.016a.355.355 0 0 1 .1-.008c.068-.001.076-.003.044-.013-.037-.011-.124-.003-.269.026l-.038.007a.239.239 0 0 1-.031.004c-.011 0-.014.003-.009.009a.485.485 0 0 0 .133-.009Zm-.081-.025.136-.023a.841.841 0 0 1 .11-.012c.01 0 .004-.007-.012-.012a.356.356 0 0 0-.178.02.905.905 0 0 1-.121.021c-.016.001-.023.003-.023.007 0 .005.039.009.052.006a.58.58 0 0 1 .036-.007Zm-.13-.042.023-.001a.225.225 0 0 0 .075-.013.672.672 0 0 1 .164-.037c.054-.001.085.018.039.025l-.049.006a.542.542 0 0 0-.113.022.343.343 0 0 1-.145.017l.006-.019Zm.087-.03a.092.092 0 0 0 .024-.009.623.623 0 0 0 .126-.035c0-.004-.072 0-.088.005l-.109.025c-.014.003-.011.01.007.015.02.006.017.006.04-.001Zm-.05-.065a.474.474 0 0 1 .166-.008c.008.005.009.004-.062.017a.849.849 0 0 0-.077.018.286.286 0 0 1-.042.008l.015-.035Zm.046-.088.092.054H.796a.44.44 0 0 0-.099.012l.022-.044H.72c.011-.003.013-.006.006-.012l.006-.01Z" style="fill:#db3332" transform="translate(-9.761 -8.59) scale(16.2684)"/></svg>